<?xml version="1.0" standalone="no"?>
<!DOCTYPE svg PUBLIC "-//W3C//DTD SVG 20010904//EN"
 "http://www.w3.org/TR/2001/REC-SVG-20010904/DTD/svg10.dtd">
<svg version="1.0" xmlns="http://www.w3.org/2000/svg"
 width="200.000000pt" height="200.000000pt" viewBox="0 0 200.000000 200.000000"
 preserveAspectRatio="xMidYMid meet">

<g transform="translate(0.000000,200.000000) scale(0.100000,-0.100000)"
fill="#000000" stroke="none">
<path d="M0 1000 l0 -1000 1000 0 1000 0 0 1000 0 1000 -1000 0 -1000 0 0
-1000z m1100 599 c53 -24 92 -59 128 -114 23 -35 26 -50 26 -121 0 -48 -5 -86
-12 -95 -7 -8 -25 -33 -41 -55 -61 -87 -204 -121 -306 -73 -25 12 -48 25 -51
30 -3 5 -15 9 -27 9 -16 0 -18 3 -8 9 9 6 10 11 2 15 -6 4 -16 4 -23 0 -6 -4
-8 -3 -5 3 4 6 -2 31 -13 54 -26 58 -26 153 -1 211 25 58 83 110 148 134 56
19 131 17 183 -7z m-307 -46 c-7 -2 -19 -2 -25 0 -7 3 -2 5 12 5 14 0 19 -2
13 -5z m-131 -46 c-12 -13 -19 -27 -15 -32 5 -4 2 -5 -5 -1 -11 6 -8 13 9 32
12 13 25 24 27 24 3 0 -4 -10 -16 -23z m-62 -104 c-11 -17 -11 -17 -6 0 3 10
6 24 7 30 0 9 2 9 5 0 3 -7 0 -20 -6 -30z m720 -23 c0 -5 -2 -10 -4 -10 -3 0
-8 5 -11 10 -3 6 -1 10 4 10 6 0 11 -4 11 -10z m85 -1 c11 -17 -1 -21 -15 -4
-8 9 -8 15 -2 15 6 0 14 -5 17 -11z m-808 -36 c-3 -10 -5 -4 -5 12 0 17 2 24
5 18 2 -7 2 -21 0 -30z m777 21 c3 -8 2 -12 -4 -9 -6 3 -10 10 -10 16 0 14 7
11 14 -7z m-734 -123 c0 -12 -28 36 -34 59 -4 14 2 8 14 -14 11 -22 20 -42 20
-45z m117 -57 c-3 -3 -12 -4 -19 -1 -8 3 -5 6 6 6 11 1 17 -2 13 -5z m-459
-253 c6 -1 12 -14 12 -31 0 -28 -3 -30 -35 -30 -33 0 -35 -2 -35 -35 0 -32 2
-35 30 -35 28 0 30 -3 30 -35 0 -32 -2 -35 -30 -35 -28 0 -30 -2 -30 -40 0
-39 1 -40 35 -40 32 0 35 -2 35 -30 l0 -30 -70 0 -70 0 0 173 0 172 58 -1 c31
-1 63 -2 70 -3z m181 -77 c6 -41 11 -84 11 -96 0 -46 11 -6 23 82 l12 93 53 1
52 1 0 -172 0 -173 -30 0 -29 0 -3 108 -3 107 -13 -85 c-21 -134 -20 -132 -56
-128 l-31 3 -16 97 c-8 54 -19 101 -22 105 -4 3 -7 -42 -7 -100 l0 -107 -30 0
-30 0 0 169 0 170 38 3 c66 5 69 3 81 -78z m366 53 c19 -27 19 -91 1 -109 -11
-12 -11 -17 0 -33 19 -26 18 -125 -2 -153 -13 -19 -24 -22 -85 -22 l-69 0 0
168 c0 93 2 171 4 173 2 2 34 2 70 1 54 -3 69 -8 81 -25z m133 -145 l2 -172
-35 0 -35 0 0 168 c0 93 2 171 5 173 2 3 17 4 32 3 l28 -1 3 -171z m115 169
c15 -1 17 -15 17 -140 l0 -140 33 -3 c27 -2 33 -8 35 -30 l3 -28 -70 0 -71 0
0 174 c0 161 1 174 18 171 9 -2 25 -4 35 -4z m291 -167 c9 -89 16 -164 16
-168 0 -3 -16 -6 -35 -6 -31 0 -35 3 -35 25 0 33 -37 35 -42 3 -2 -18 -11 -24
-35 -26 -41 -4 -41 -27 -3 335 0 5 106 8 112 3 3 -3 13 -78 22 -166z m192 161
c26 -6 44 -45 44 -98 0 -61 -19 -90 -63 -101 l-37 -10 0 -63 0 -63 -35 0 -35
0 0 169 c0 126 3 171 13 174 11 5 68 1 113 -8z m237 -16 c9 -12 17 -34 17 -50
0 -26 -3 -29 -31 -29 -22 0 -32 5 -36 20 -6 21 -33 28 -33 9 0 -6 23 -36 50
-66 47 -52 50 -58 50 -109 0 -46 -4 -59 -26 -81 -21 -21 -32 -24 -62 -20 -51
9 -75 37 -76 89 -1 41 0 43 31 46 29 3 32 1 35 -29 4 -42 28 -52 28 -12 0 20
-11 40 -35 63 -52 50 -70 94 -56 140 6 21 21 42 33 48 32 16 90 6 111 -19z
m-1226 -481 c-2 -13 -4 -5 -4 17 -1 22 1 32 4 23 2 -10 2 -28 0 -40z m216 11
c-4 -12 0 -25 8 -30 11 -7 11 -9 -2 -9 -11 0 -18 11 -21 30 -5 31 -1 43 12 35
5 -3 6 -14 3 -26z m391 -7 c1 -18 -2 -32 -6 -32 -5 0 -8 9 -8 19 0 11 -3 27
-7 37 -4 11 -2 15 7 12 7 -2 14 -18 14 -36z m-526 -5 c3 -25 0 -28 -19 -25
-12 2 -24 9 -25 16 -1 7 0 8 3 2 2 -5 11 -10 19 -10 22 0 13 34 -11 42 -17 6
-16 7 5 5 19 -2 26 -8 28 -30z m87 3 c0 -18 -5 -25 -20 -25 -11 0 -23 -7 -27
-15 -4 -8 -7 4 -7 28 -1 41 0 43 27 40 21 -2 27 -8 27 -28z m135 15 c10 -12
10 -18 0 -30 -7 -8 -18 -15 -25 -15 -7 0 -18 7 -25 15 -10 12 -10 18 0 30 7 8
18 15 25 15 7 0 18 -7 25 -15z m85 -15 c0 -18 -5 -25 -20 -25 -11 0 -23 -7
-27 -15 -4 -8 -7 4 -7 28 -1 41 0 43 27 40 21 -2 27 -8 27 -28z m52 23 c-9 -2
-15 -9 -12 -14 4 -5 1 -9 -4 -9 -12 0 -14 13 -4 23 3 4 13 6 22 6 13 -1 12 -2
-2 -6z m103 -2 l-25 -7 23 -8 c27 -9 24 -30 -4 -33 -18 -3 -18 -2 1 6 19 8 19
8 -3 20 -27 14 -20 31 11 30 20 -1 20 -2 -3 -8z m148 -19 c4 -28 -24 -41 -44
-20 -20 20 -7 50 20 46 13 -2 22 -12 24 -26z m56 20 c-7 -4 -14 -18 -17 -32
-4 -21 -4 -20 -6 8 -1 24 3 32 17 32 11 0 13 -3 6 -8z m72 -10 c1 -7 0 -8 -3
-2 -8 18 -33 11 -33 -9 0 -12 8 -21 23 -24 l22 -4 -23 -2 c-25 -1 -38 20 -28
45 7 18 38 15 42 -4z m-358 -24 c-3 -7 -14 -14 -26 -14 -20 -2 -20 -1 -2 3 11
2 18 9 15 14 -4 5 -1 9 5 9 7 0 10 -6 8 -12z"/>
<path d="M760 839 c0 -52 24 -48 28 4 2 28 -1 37 -12 37 -12 0 -16 -11 -16
-41z"/>
<path d="M760 700 c0 -38 4 -50 15 -50 11 0 15 12 15 50 0 38 -4 50 -15 50
-11 0 -15 -12 -15 -50z"/>
<path d="M1301 798 c0 -36 -4 -73 -7 -82 -4 -11 -1 -16 10 -16 13 0 16 10 15
53 -1 28 -5 66 -9 82 -6 23 -8 15 -9 -37z"/>
<path d="M1520 830 c0 -29 4 -40 13 -37 6 2 12 19 12 37 0 18 -6 35 -12 38 -9
2 -13 -9 -13 -38z"/>
<path d="M715 440 c-8 -14 3 -30 21 -30 8 0 14 9 14 20 0 21 -24 28 -35 10z"/>
<path d="M845 440 c-4 -7 -3 -16 3 -22 14 -14 45 -2 40 15 -6 16 -34 21 -43 7z"/>
<path d="M935 440 c-8 -14 3 -30 21 -30 8 0 14 9 14 20 0 21 -24 28 -35 10z"/>
<path d="M1235 440 c-8 -14 3 -30 21 -30 8 0 14 9 14 20 0 21 -24 28 -35 10z"/>
</g>
</svg>
